<?xml version="1.0" encoding="UTF-8"?>
<svg id="Layer_1" data-name="Layer 1" xmlns="http://www.w3.org/2000/svg" viewBox="0 0 162.73 140.9">
  <defs>
    <style>
      .cls-1 {
        fill: #000;
      }

      .cls-1, .cls-2 {
        stroke-width: 0px;
      }

      .cls-2 {
        fill: #fff;
      }
    </style>
  </defs>
  <g>
    <polygon class="cls-1" points="139.85 51.22 140.73 56.9 139.83 63.11 141.71 69.31 140.38 75.52 141.71 81.72 139.75 87.93 139.96 94.13 139.34 100.34 141.43 106.54 140 112.75 140.32 118.98 133.5 118.63 127.45 115.28 120.79 114.35 114.44 112.22 107.98 110.51 100.8 111.64 94.57 109.02 87.86 108.27 81.44 106.38 81.52 107.23 74.55 106.93 67.87 107.9 61.34 109.49 55.02 111.87 48.63 114.01 41.9 114.8 35.02 114.99 28.46 116.46 22.04 119.11 21.49 112.76 20.92 106.55 21.53 100.35 22.61 94.14 21.9 87.94 22.76 81.74 21.83 75.53 22.16 69.32 21.07 63.12 22.18 56.91 22.31 50.86 28.87 51.06 35.31 52.69 41.97 53.3 48.46 54.71 54.62 57.7 61.14 58.96 68.14 57.92 74.5 60 81.03 61.22 81.27 61.69 87.72 59.92 94.19 58.28 100.96 58.09 107.55 57.05 114.01 55.36 120.54 53.97 127.27 53.56 133.72 51.81 139.85 51.22"/>
    <path class="cls-1" d="M81.23,58.04l-6.68-1.71-7.21.05-7.11-.43-6.54-3.12-7.36.79-6.88-1.5-6.88-1.54-6.89-1.48-6.13,4.43.88,6.25.22,6.25-1.43,6.25.76,6.25.23,6.25-.18,6.25-.72,6.25-.95,6.25,1.88,6.25-.48,6.25,6.45,5.86,6.85-1.74,6.47-3.27,7.18-.44,7.09-.81,6.37-3.67,7.52.91,6.68-2.46,6.86-.55,6.83.63,7.25.18,6.41,3.5,7.44-.59,6.79,2,6.66,2.49,7.01,1.12,7.02,1.08,6.8-4.25-.34-6.25-1.02-6.25.44-6.25-.44-6.25,1.21-6.25.02-6.25-1.6-6.25,2.52-6.25.12-6.25-2.42-6.25-5.21-4.72-6.82,1.81-7.29-.44-6.88,1.52-6.67,2.5-6.98,1.05-6.78,2.02-7.04,1-7.04-.22ZM139.8,118.36l-5.72-2.03-6.86-.13-6.74-.61-6.06-3.28-7.04.6-6.47-1.67-6.46-1.71-6.48-1.65-6.45-1.78-.08.74-6.49,1.64-6.89.15-6.39,2.14-6.51,1.66-6.6,1.28-6.73.79-6.78.58-6.14,3.16-6.92.96,1.35-6.42-.24-6.21-1.92-6.2,1.19-6.2.78-6.21-2.36-6.2,2.67-6.2-1.04-6.21,1.03-6.2-.94-6.21-1.06-7.03,7.06,2.97,6.98-.94,6.43,1.68,6.33,2.18,6.62.79,6.63.75,6.33,2.16,6.6.88,6.73.26v.45s6.46-1.6,6.46-1.6l6.79-.09,6.57-1.18,6.25-2.66,7.05,1.12,6.59-1.09,6.1-3.42,6.74-.36,7.05-1.6-1.6,6.73.28,6.21,1.35,6.2-.24,6.2.82,6.21-.3,6.2-.34,6.2-1.78,6.21.25,6.2,2.04,6.24-1.46,5.57Z"/>
  </g>
  <g>
    <path class="cls-2" d="M41.05,81.68c.98,1.1,1.82,2.17,2.54,3.22.71,1.05,1.3,2.13,1.78,3.26.47,1.12.83,2.33,1.07,3.63.24,1.3.36,2.77.36,4.42,0,1.55-.13,2.91-.38,4.08-.25,1.17-.57,2.23-.95,3.18-.38.95-.79,1.77-1.23,2.47l-1.19,1.87c-.32.45-.75.94-1.3,1.46-.55.52-1.21.99-1.97,1.38s-1.61.71-2.56.94c-.95.23-1.96.29-3.03.19-1.33-.1-2.43-.41-3.3-.94-.87-.52-1.6-1.13-2.2-1.83-.6-.7-1.07-1.42-1.42-2.17-.35-.75-.66-1.37-.95-1.87-.22-.4-.45-.91-.69-1.53-.24-.62-.45-1.27-.64-1.95-.19-.67-.32-1.33-.4-1.98-.08-.65-.07-1.15.02-1.5.16-.6.41-1.2.76-1.8.35-.6.73-1.12,1.16-1.57.43-.45.87-.82,1.33-1.12.46-.3.88-.45,1.26-.45.63,0,1.18.29,1.64.86.46.57,1,1.53,1.64,2.88.76,1.65,1.6,2.47,2.51,2.47.57,0,1.12-.25,1.66-.75.57-.5.94-1.2,1.11-2.1.17-.9.1-1.84-.21-2.84-.35-1.1-.8-2.02-1.35-2.77-.55-.75-1.16-1.43-1.83-2.06-.66-.62-1.38-1.23-2.13-1.83s-1.52-1.3-2.28-2.1-1.49-1.75-2.18-2.84c-.7-1.1-1.33-2.44-1.9-4.04-.32-.9-.56-1.95-.73-3.14-.17-1.2-.28-2.43-.31-3.7-.03-1.27.02-2.52.17-3.74.14-1.22.37-2.31.69-3.26.47-1.35,1.08-2.49,1.83-3.44.74-.95,1.56-1.72,2.44-2.32.88-.6,1.81-1.04,2.77-1.31.96-.27,1.92-.41,2.87-.41,1.45,0,2.69.26,3.72.79,1.03.52,1.76,1.04,2.2,1.54.28.3.7.86,1.23,1.68s1.06,1.73,1.56,2.73c.51,1,.9,2,1.19,2.99.28,1,.33,1.8.14,2.4-.22.65-.62,1.27-1.21,1.87-.59.6-1.05,1.02-1.4,1.27-.25.2-.62.49-1.09.86-.47.37-.93.56-1.37.56-.47,0-.81-.27-1-.82-.16-.5-.34-1.05-.55-1.65-.21-.6-.45-1.16-.74-1.68-.28-.52-.59-.95-.92-1.27-.33-.32-.72-.44-1.16-.34-.95.2-1.59.75-1.92,1.65-.33.9-.45,1.92-.36,3.07.09,1,.32,1.82.66,2.47.35.65.82,1.27,1.42,1.87.6.6,1.33,1.29,2.18,2.06.85.77,1.83,1.78,2.94,3.03ZM28.49,71.72c.13.2.22.32.28.37l.09.08h.05c.16,0,.24-.12.24-.37s-.06-.4-.19-.45v-.08l-.05-.08h-.05c-.09-.1-.18-.2-.26-.3-.08-.1-.15-.2-.21-.3l-.09-.15s-.06-.08-.09-.08l-.09-.22h-.05l-.09-.15c-.09,0-.17.08-.21.23s-.04.27.02.37c.03.1.04.14.02.11-.02-.02,0,.01.07.11l.62.9ZM28.44,67.38c-.13,0-.19.1-.19.3s.06.3.19.3.19-.1.19-.3-.06-.3-.19-.3ZM29.11,76.14c.09,0,.14-.1.14-.3s-.05-.3-.14-.3c-.13,0-.19.1-.19.3s.06.3.19.3ZM30.05,70.75c.03-.1.05-.3.05-.6l-.09-.08v-.45c-.03-.1-.06-.25-.09-.45-.03-.2-.08-.35-.14-.45l.09-.15c.16-.25.17-.5.05-.75-.13-.2-.24-.22-.33-.07h-.14c-.09,0-.16.05-.19.15-.09,0-.15.09-.17.26-.02.18.02.29.12.34.06.1.11.2.14.3h.05l.09.37c.06.3.09.55.09.75s.02.4.05.6c.03.1.05.19.05.26s.03.11.09.11c.13.1.22.05.28-.15ZM29.72,73.6c.13,0,.19-.1.19-.3s-.06-.3-.19-.3c-.09,0-.14.1-.14.3s.05.3.14.3ZM30.48,68.36c.09-.05.14-.16.14-.34s-.03-.34-.09-.49v-.07l-.05-.08-.05-.15c-.06-.1-.09-.16-.09-.19,0-.02-.02-.09-.05-.19-.03-.05-.06-.1-.07-.15-.02-.05-.06-.1-.12-.15-.06-.05-.12-.04-.17.04-.05.08-.07.16-.07.26-.03.1-.04.18-.02.22.02.05.02.12.02.22.06.05.11.2.14.45l.14.45c.09.25.21.3.33.15ZM30.05,64.31c-.09,0-.14.1-.14.3s.05.3.14.3.14-.1.14-.3-.05-.3-.14-.3ZM30.05,101.07c.09,0,.14-.1.14-.3s-.05-.3-.14-.3-.14.1-.14.3.05.3.14.3ZM31,104.14c.13,0,.18-.1.17-.3-.02-.2-.07-.3-.17-.3s-.14.1-.14.3.05.3.14.3ZM32,105.78c.16-.1.21-.29.17-.56-.05-.27-.15-.36-.31-.26-.03,0-.14.05-.33.15-.16,0-.24.12-.24.37v.07c-.06.1-.08.22-.05.37.03.15.09.22.19.22.09.05.17-.02.24-.22.09,0,.21-.05.33-.15ZM31.67,77.49c.06-.1.09-.24.09-.41s-.03-.31-.09-.41c-.13-.1-.24-.1-.33,0-.09.1-.13.25-.09.45,0,.15.04.29.12.41.08.12.18.11.31-.04ZM32,68.51c.09,0,.14-.1.14-.3s-.05-.3-.14-.3c-.13,0-.19.09-.19.26s.06.29.19.34ZM32.33,64.39c.09,0,.14-.1.14-.3s-.05-.3-.14-.3c-.13,0-.19.1-.19.3s.06.3.19.3ZM33.47,81.01c.13-.2.14-.4.05-.6-.06-.3-.17-.37-.33-.23-.06.1-.09.25-.09.45v.08c-.03.1-.05.22-.05.37v.08l.05.3v.08c.03.25.11.36.24.34.13-.02.19-.16.19-.41-.03-.05-.05-.12-.05-.22v-.22ZM33.75,107.43c.06-.1.09-.22.07-.37-.02-.15-.07-.27-.17-.37-.09,0-.17.05-.24.15s-.08.24-.05.41c.03.18.08.29.14.34.16.1.24.05.24-.15ZM33.94,80.18c.09,0,.14-.1.14-.3s-.05-.3-.14-.3c-.13,0-.19.1-.19.3s.06.3.19.3ZM34.56,104.51c.16,0,.24-.14.24-.41s-.08-.41-.24-.41h-.28c-.09,0-.14.08-.14.22-.09.25-.08.42.05.52.03.05.09.08.19.08h.19ZM36.17,61.77c-.09,0-.14.1-.14.3s.05.3.14.3c.13,0,.19-.1.19-.3s-.06-.3-.19-.3ZM37.54,62.37c-.09.05-.14.18-.14.37s.05.3.14.3.14-.1.14-.3-.05-.32-.14-.37ZM40.15,103.54c.13-.1.18-.29.17-.56-.02-.27-.1-.41-.26-.41h-.59c-.17,0-.37-.02-.59-.08-.19-.1-.35-.15-.47-.15h-.43c-.09.1-.21.3-.33.6,0,.05-.02.1-.05.15v.37s-.05.05-.05.15c-.06.2-.08.4-.05.6,0,.3.11.37.33.22.06,0,.13-.12.19-.37.03-.1.05-.2.05-.3s.02-.2.05-.3v-.08h.19c.16,0,.3.05.43.15h-.05c-.16.2-.25.45-.26.75-.02.3.04.52.17.67.06.1.14.15.24.15s.17-.02.24-.08v-.08h.24l.14.15c.06.1.11.15.14.15.13-.1.19-.24.19-.41s-.05-.29-.14-.34c-.1-.05-.14-.1-.14-.15-.06-.1-.09-.15-.07-.15s0-.02-.02-.08c0-.25-.08-.3-.24-.15-.06-.25-.13-.4-.19-.45h.24l.43.07h.33c.09,0,.16-.02.19-.07ZM38.11,108.25c.09,0,.14-.11.14-.34s-.05-.34-.14-.34-.14.11-.14.34.05.34.14.34ZM38.45,85.72c-.13,0-.19.1-.19.3s.06.3.19.3c.09,0,.14-.1.14-.3s-.05-.3-.14-.3ZM39.39,83.63c-.09,0-.14.11-.14.34s.05.34.14.34c.13,0,.19-.11.19-.34s-.06-.34-.19-.34ZM40.39,64.31c-.13,0-.19.1-.19.3s.06.3.19.3c.1,0,.14-.1.14-.3s-.05-.3-.14-.3ZM40.39,99.57c.1-.05.14-.16.14-.34s-.05-.26-.14-.26c-.13,0-.19.09-.19.26s.06.29.19.34ZM40.72,86.85c.09-.05.14-.16.14-.34s-.05-.26-.14-.26c-.13,0-.19.09-.19.26s.06.29.19.34ZM41.15,89.77c.06.15.14.17.24.07.09-.1.17-.22.24-.37,0-.2-.04-.37-.12-.52-.08-.15-.18-.17-.31-.08-.22.2-.24.5-.05.9ZM41.34,102.12c.09,0,.14-.1.14-.3s-.05-.3-.14-.3-.14.1-.14.3.05.3.14.3ZM41.67,93.36c-.09,0-.14.1-.14.3s.05.3.14.3.14-.1.14-.3-.05-.3-.14-.3ZM42.29,99.05c.13,0,.19-.1.19-.3s-.06-.3-.19-.3c-.03,0-.06.03-.1.08.03-.1.05-.17.05-.22s.02-.1.05-.15c0-.1,0-.17.02-.22.02-.05,0-.12-.02-.22,0-.2-.04-.31-.12-.34-.08-.02-.15.04-.21.19v.08c-.06.2-.11.37-.14.52l-.19,1.42v.52c0,.25.03.4.1.45.09.15.21.12.33-.08.06-.1.09-.2.09-.3v-1.35c.06.15.11.22.14.22ZM42.29,93.43c.13,0,.19-.1.19-.3s-.06-.3-.19-.3c-.1,0-.14.1-.14.3s.05.3.14.3Z"/>
    <path class="cls-2" d="M69.25,62.95c.08.34.13.91.16,1.73.03.82.04,1.77.04,2.85v3.51c0,1.25.03,2.51.08,3.76.08,2.51.19,5.09.34,7.75.15,2.66.14,5.36-.02,8.13-.08,1.38-.12,2.92-.12,4.61s0,3.3-.02,4.83c-.01,1.53-.06,2.85-.14,3.98-.08,1.13-.26,1.82-.52,2.07-.21.21-.52.34-.91.41-.39.06-.84.09-1.35.09-.86,0-1.73-.06-2.62-.19-.89-.13-1.52-.17-1.89-.13-.3,0-.51-.31-.64-.94s-.22-1.35-.26-2.16c-.04-.82-.05-1.61-.02-2.38.03-.77.05-1.31.08-1.6.03-.21.03-.67.02-1.38-.01-.71-.03-1.55-.06-2.51-.03-.96-.06-2-.1-3.11-.04-1.11-.07-2.16-.1-3.17h-.16c-.08,0-.24.01-.48.03-.24.02-.5.03-.78.03h-1.51c-.21-.04-.44-.05-.66-.03-.23.02-.46.03-.7.03-.03.25-.05.5-.06.75-.01.25-.02.48-.02.69-.08,1.38-.11,2.92-.1,4.61.01,1.69.01,3.3,0,4.83-.01,1.53-.06,2.86-.14,3.98-.08,1.13-.24,1.82-.48,2.07-.19.21-.47.34-.84.41-.38.06-.8.09-1.29.09-.4,0-.82-.02-1.25-.06-.43-.04-.85-.08-1.25-.13s-.76-.07-1.09-.09c-.32-.02-.56-.03-.72-.03-.27,0-.47-.31-.6-.94-.13-.63-.22-1.36-.26-2.2-.04-.84-.05-1.64-.02-2.42.03-.77.05-1.31.08-1.6.03-.29.02-1.05-.02-2.26-.04-1.21-.08-2.57-.12-4.08-.04-1.51-.08-2.97-.12-4.39-.04-1.42-.05-2.49-.02-3.2.03-.71.06-1.56.1-2.54.04-.98.07-2.01.1-3.07.03-1.07.04-2.13.04-3.2s-.04-2-.12-2.79c-.05-.67-.08-1.53-.08-2.57s.02-2.09.06-3.14.09-1.99.16-2.82c.07-.84.14-1.38.22-1.63.19-.5.56-.87,1.11-1.1.55-.23,1.16-.39,1.83-.47.27-.04.62-.07,1.05-.09.43-.02.86,0,1.31.03.44.04.84.15,1.19.31.35.17.56.44.64.82.11.34.17.9.2,1.69.03.79.04,1.74.04,2.82v3.55c0,1.28.01,2.54.04,3.8.05.71.09,1.45.12,2.23.03.77.07,1.54.12,2.29h.84c.29,0,.66.02,1.09.06.43.04.67.04.72,0,.03,0,.12-.01.28-.03.16-.02.35-.03.56-.03h1.21c.03-1,.03-2,.02-2.98-.01-.98-.05-1.87-.1-2.67-.05-.67-.09-1.53-.1-2.57-.01-1.05,0-2.09.04-3.14.04-1.05.1-1.99.18-2.82.08-.84.17-1.38.28-1.63.19-.5.57-.87,1.15-1.1.58-.23,1.21-.39,1.91-.47.29-.04.67-.08,1.13-.13.46-.04.91-.04,1.37,0,.46.04.87.15,1.25.31.38.17.62.44.72.82ZM51.67,100.85c.11,0,.16-.08.16-.25s-.05-.25-.16-.25c-.08,0-.12.08-.12.25s.04.25.12.25ZM51.79,98.71c.08,0,.12-.08.12-.25s-.04-.25-.12-.25-.12.08-.12.25.04.25.12.25ZM51.91,93.88c.08,0,.12-.08.12-.25s-.04-.25-.12-.25-.12.08-.12.25.04.25.12.25ZM52.64,88.24v-.06l.04-.19v-.13c-.03-.08-.03-.17-.02-.25.01-.08,0-.17-.06-.25,0-.17-.04-.25-.12-.25h-.04c-.16,0-.24.15-.24.44.03.08.04.25.04.5v.13c0,.17.04.29.12.38.13.04.23-.06.28-.31ZM52.35,80.9c-.08,0-.12.08-.12.25s.04.25.12.25c.11,0,.16-.08.16-.25s-.05-.25-.16-.25ZM52.52,71.74c-.11.08-.15.22-.14.41.01.19.07.32.18.41h.12l.12-.13h.2c.08-.13.12-.27.12-.44s-.05-.29-.16-.38c-.05-.17-.13-.24-.24-.22-.11.02-.18.14-.2.35ZM52.72,84.1c.11-.04.16-.14.16-.28s-.05-.22-.16-.22c-.13,0-.18.1-.12.31-.08.04-.12.14-.12.28s.04.24.12.28c.05,0,.09-.04.12-.13.03-.08.03-.17,0-.25ZM52.96,78.76c.08-.04.12-.15.12-.31s-.04-.25-.12-.25c-.11,0-.16.08-.16.25s.05.27.16.31ZM52.96,83.72c.08,0,.12-.08.12-.25s-.04-.27-.12-.31c-.11.04-.16.15-.16.31s.05.25.16.25ZM53.2,83.34c.08,0,.12-.08.12-.25s-.04-.25-.12-.25c-.11,0-.16.08-.16.25s.05.25.16.25ZM54.57,85.16c.08,0,.12-.09.12-.28s-.04-.28-.12-.28c-.11,0-.16.09-.16.28s.05.28.16.28ZM64.99,96.2c.08,0,.12-.08.12-.25s-.04-.25-.12-.25-.12.08-.12.25.04.25.12.25ZM65.19,91.94c.11,0,.16-.08.16-.25s-.05-.25-.16-.25c-.08,0-.12.08-.12.25s.04.25.12.25ZM65.47,84.22c.24.08.47.02.68-.19.05,0,.11-.04.16-.13.08-.08.13-.15.16-.19.05-.17.05-.35,0-.53-.05-.19-.15-.22-.28-.09l-.08.06-.08.06v.06h-.04l-.12.06c-.05-.04-.11-.06-.16-.06-.11-.13-.21-.15-.32-.06-.11.08-.17.2-.18.35-.01.15,0,.26.02.34.05.13.13.23.24.31ZM65.43,90.68c.11,0,.16-.08.16-.25s-.05-.25-.16-.25c-.08,0-.12.08-.12.25s.04.25.12.25ZM65.59,80.21c-.05.25-.05.44,0,.57.05.25.15.31.28.19.05-.08.09-.19.1-.31.01-.13.03-.25.06-.38.03-.21.05-.4.06-.57.01-.17.02-.35.02-.56,0-.25-.03-.44-.08-.57-.08-.13-.16-.15-.24-.06-.08.08-.12.21-.12.38v.69c0,.13-.03.34-.08.63ZM65.75,72.43c-.08.04-.12.15-.12.31s.04.25.12.25c.11,0,.16-.08.16-.25s-.05-.27-.16-.31ZM66.8,97.46c.05-.13.05-.25,0-.38,0-.13-.07-.29-.2-.5-.11-.08-.2-.02-.28.19-.05.08-.07.18-.06.28.01.1.05.2.1.28-.03.13-.07.27-.12.44-.05.17-.11.36-.16.57l-.28.82c-.03.08-.05.15-.08.19s-.04.11-.04.19c-.03.21.02.37.14.47.12.11.21.05.26-.16.11-.25.2-.51.28-.78.08-.27.16-.55.24-.85l.04-.13.12-.38s.04-.08.04-.13v-.13ZM65.87,87.67c.11,0,.16-.09.16-.28s-.05-.28-.16-.28c-.08,0-.12.09-.12.28s.04.28.12.28ZM66.6,93.01c.08,0,.12-.08.12-.25s-.04-.25-.12-.25c-.11,0-.16.08-.16.25s.05.25.16.25ZM67.16,88.17c.11,0,.16-.08.16-.25s-.05-.25-.16-.25-.16.08-.16.25.05.25.16.25Z"/>
    <path class="cls-2" d="M93.23,92.9c0,.55,0,1.02.02,1.41.01.39.02.77.02,1.13s0,.74-.02,1.1c-.01.37-.03.77-.06,1.22-.03.55-.04,1.08-.04,1.58s-.01.96-.04,1.38-.07.83-.14,1.22c-.07.39-.19.78-.38,1.19-.05.11-.2.22-.44.33-.24.11-.54.21-.91.3-.36.09-.76.16-1.21.19-.44.04-.88.05-1.31.05-.72,0-1.36-.07-1.91-.22-.55-.15-.83-.41-.83-.77.05-.88.06-1.72.02-2.51-.04-.79,0-1.67.1-2.63.11-.85.13-1.46.08-1.85-.05-.39-.08-.87-.08-1.46,0-1.36-.4-2.3-1.21-2.82-.8-.52-1.88-.72-3.22-.61-.13,0-.28,0-.42.03s-.29.05-.42.08c-.03,1.22-.03,2.5-.02,3.84.01,1.35.01,2.62,0,3.81s-.06,2.22-.14,3.07c-.08.85-.23,1.38-.44,1.6-.16.18-.42.29-.78.33-.36.04-.77.06-1.23.06-.43,0-.87-.02-1.33-.06-.46-.04-.89-.07-1.31-.11-.42-.04-.79-.06-1.13-.08-.34-.02-.58-.03-.74-.03-.27.04-.46-.22-.58-.77s-.2-1.2-.24-1.93c-.04-.74-.05-1.45-.02-2.13.03-.68.05-1.15.08-1.41.03-.26.03-.92,0-1.99-.03-1.07-.07-2.27-.12-3.59-.05-1.33-.1-2.63-.14-3.9-.04-1.27-.05-2.22-.02-2.85.03-.63.05-1.37.06-2.24.01-.87.02-1.77.02-2.71s-.01-1.87-.04-2.79c-.03-.92-.08-1.73-.16-2.43-.05-.63-.09-1.4-.1-2.32-.01-.92,0-1.83.02-2.74.03-.9.07-1.72.14-2.46.07-.74.14-1.22.22-1.44.08-.22.25-.41.52-.58.27-.17.58-.3.93-.41.35-.11.7-.2,1.07-.28.36-.07.7-.13,1.03-.17.21,0,.51-.02.89-.06.38-.04.75-.02,1.13.06.91-.04,2.11-.04,3.58,0,1.34,0,2.44.04,3.3.11.86.07,1.65.31,2.37.72.75.37,1.52.84,2.29,1.41.78.57,1.47,1.27,2.09,2.1.62.83,1.13,1.83,1.53,3.01.4,1.18.6,2.58.6,4.2,0,2.06-.28,3.92-.84,5.58s-1.35,2.99-2.37,3.98c.29.44.58.96.84,1.55.27.59.51,1.21.72,1.85.21.65.39,1.3.52,1.96.13.66.2,1.29.2,1.88ZM75.69,80.8c.08,0,.12-.07.12-.22s-.04-.22-.12-.22c-.11,0-.16.07-.16.22s.05.22.16.22ZM75.85,75.21c-.08,0-.12.07-.12.22s.04.22.12.22c.11,0,.16-.07.16-.22s-.05-.22-.16-.22ZM76.94,98.7c.16-.11.24-.29.24-.55,0-.15-.03-.29-.08-.44-.13-.15-.23-.15-.28,0-.05.07-.09.15-.12.22-.03.04-.05.06-.08.06h-.08c-.16.15-.21.31-.16.5.05.26.13.41.24.44.13-.07.2-.13.2-.17.05,0,.09-.02.12-.05ZM76.58,93.4c.11-.04.16-.12.16-.25s-.05-.19-.16-.19c-.08,0-.12.06-.12.19s.04.21.12.25ZM76.7,70.51c-.05.11-.06.26-.02.44.04.19.13.24.26.17.03,0,.08-.07.16-.22l.08-.17c.11-.22.16-.37.16-.44.03-.18-.01-.31-.12-.39-.11-.07-.2-.02-.28.17-.05.19-.09.28-.12.28s-.07.06-.12.17ZM77.3,72.95c.08,0,.12-.07.12-.22s-.04-.24-.12-.28c-.08.04-.12.13-.12.28s.04.22.12.22ZM77.3,85.99c.08,0,.12-.07.12-.22s-.04-.22-.12-.22-.12.07-.12.22.04.22.12.22ZM78.39,82.79c.08,0,.12-.07.12-.22s-.04-.22-.12-.22-.12.07-.12.22.04.22.12.22ZM78.75,85.71c.08,0,.12-.06.12-.19s-.04-.21-.12-.25c-.11.04-.16.12-.16.25s.05.19.16.19ZM79.35,69.3c-.05-.15-.15-.18-.28-.11-.13.18-.19.33-.16.44,0,.18.08.28.24.28l.04-.05.16-.11c.05-.15.05-.29,0-.44ZM86.23,79.25c.05-.07.13-.2.22-.39.09-.18.17-.42.24-.72.07-.29.09-.64.08-1.05-.01-.4-.11-.83-.3-1.27-.11-.29-.37-.51-.78-.64-.42-.13-.88-.22-1.39-.28-.51-.06-1.03-.06-1.55-.03-.52.04-.95.07-1.27.11-.05.74-.09,1.53-.1,2.38-.01.85-.02,1.69-.02,2.54.24,0,.56,0,.97.03.4.02.75.03,1.05.03.64,0,1.22-.07,1.73-.22.51-.15.89-.31,1.13-.5ZM84.66,68.8c-.08,0-.12.07-.12.22s.04.22.12.22.12-.07.12-.22-.04-.22-.12-.22ZM85.55,86.93c.05-.18.04-.4-.04-.66-.08-.26-.16-.46-.24-.61-.11-.22-.21-.24-.3-.06-.09.19-.1.37-.02.55l.08.11.12.33v.22l.04.06c.05.15.11.23.18.25.07.02.13-.05.18-.19ZM87.2,86.16c.16.04.28-.03.36-.19.08-.17.09-.36.04-.58-.08-.11-.13-.17-.16-.17-.11-.11-.21-.17-.32-.17h-.08c-.11-.07-.17-.03-.2.14-.03.17.01.27.12.3v.05c-.16.07-.19.22-.08.44.03.07.08.11.16.11.03.04.08.05.16.05ZM87.88,86.49c.11,0,.16-.07.16-.22s-.05-.24-.16-.28c-.11.04-.16.13-.16.28s.05.22.16.22ZM88.45,72.17c.13-.26.2-.52.2-.77,0-.18-.03-.36-.1-.53-.07-.17-.13-.28-.18-.36v-.33l.04-.17v-.06c-.03-.15-.07-.23-.14-.25-.07-.02-.13.05-.18.19,0,.11,0,.23-.02.36-.01.13,0,.25.02.36.03.11.06.21.1.3.04.09.07.18.1.25.05.22.04.41-.04.55-.08-.07-.15-.07-.2,0-.05.07-.07.19-.04.33.03.15.09.24.2.28.05,0,.09-.02.12-.05.03-.04.07-.07.12-.11ZM88.77,82.56c.11-.04.16-.12.16-.25s-.05-.19-.16-.19c-.08,0-.12.07-.12.19s.04.21.12.25ZM89.65,89.97c.11-.04.16-.13.16-.28s-.05-.22-.16-.22c-.08,0-.12.07-.12.22s.04.24.12.28ZM90.02,74.66c.11,0,.16-.07.16-.22s-.05-.22-.16-.22c-.08,0-.12.07-.12.22s.04.22.12.22Z"/>
    <path class="cls-2" d="M113.24,73.14c-.13.3-.34.49-.62.57-.28.09-.64.13-1.07.13-.72,0-1.6-.06-2.64-.19s-2.11-.11-3.24.06c-.51.04-1.01.11-1.49.19.03.17.04.42.04.76.03.68.05,1.38.08,2.1.03.72.07,1.44.12,2.16.7.09,1.15.09,1.37,0,.19-.04.53-.07,1.03-.09.5-.02,1.01-.01,1.53.03.52.04.99.16,1.39.35s.6.5.6.92.03,1.08.08,1.97c.05.89.09,1.83.12,2.83s.03,1.93,0,2.8c-.03.87-.12,1.49-.28,1.88-.21.47-.76.7-1.65.7-.54,0-1.14-.04-1.81-.13-.67-.08-1.4-.13-2.17-.13v.06s-.04.09-.04.13v.32l-.04.13c-.08,1.27-.12,2.65-.12,4.13.48.04.96.1,1.43.16.47.06.91.12,1.31.16.4.04.74.06,1.03.06h.58c.19-.08.53-.15,1.03-.19.5-.04,1.01-.03,1.55.03.54.06,1.01.2,1.41.41.4.21.6.53.6.95s.02,1.1.06,2.04c.04.93.08,1.92.12,2.96.04,1.04.04,2.01,0,2.93s-.14,1.56-.3,1.94c-.13.3-.35.5-.64.6-.3.11-.67.16-1.13.16-.72,0-1.59-.06-2.59-.19-1.01-.13-2.07-.13-3.2,0-.62.08-1.16.15-1.63.19s-.9.07-1.29.1c-.39.02-.76.02-1.11,0-.35-.02-.71-.05-1.09-.1v-.13c-.78-.04-1.52-.11-2.21-.19-.7-.08-1.21-.13-1.53-.13-.3.04-.51-.25-.64-.89-.13-.64-.22-1.38-.26-2.23-.04-.85-.05-1.66-.02-2.45.03-.78.05-1.33.08-1.62.03-.3.03-1.06,0-2.29-.03-1.23-.07-2.61-.12-4.14-.05-1.53-.1-3.01-.14-4.45-.04-1.44-.05-2.52-.02-3.24.03-.72.06-1.59.1-2.61.04-1.02.08-2.07.12-3.15.04-1.08.07-2.15.08-3.21.01-1.06-.02-1.99-.1-2.8-.08-.72-.12-1.61-.12-2.67s.02-2.11.06-3.15c.04-1.04.09-1.98.16-2.83.07-.85.15-1.4.26-1.65.21-.51.62-.89,1.21-1.15.59-.25,1.23-.42,1.93-.51.27,0,.6-.02.99-.06.39-.04.8-.04,1.23,0,.51,0,1.13.03,1.87.1.74.06,1.47.14,2.19.22.72.09,1.38.15,1.97.19.59.04.97.04,1.13,0,.19-.04.53-.08,1.03-.13.5-.04,1.01-.03,1.55.03.54.06,1.01.19,1.41.38.4.19.6.5.6.92s.02,1.1.06,2.04c.04.93.08,1.92.12,2.96.04,1.04.04,2.03,0,2.96s-.14,1.59-.3,1.97ZM99.2,91.52c.08,0,.12-.08.12-.25s-.04-.25-.12-.25c-.11,0-.16.09-.16.25s.05.25.16.25ZM100.2,100.37c.11.09.19.09.24,0s.08-.19.08-.32c0-.25-.07-.42-.2-.51v-.25c-.03-.21-.09-.34-.2-.38-.11-.04-.19.06-.24.32,0,.13-.01.28-.04.45-.03.17,0,.32.08.45.05.09.1.14.14.16.04.02.09.05.14.1ZM100.04,68.69c-.11,0-.16.08-.16.22s.05.25.16.29c.08-.04.12-.14.12-.29s-.04-.22-.12-.22ZM100.04,76.96c-.11.04-.16.14-.16.29s.05.22.16.22c.08,0,.12-.07.12-.22s-.04-.24-.12-.29ZM100.16,72.57c.11,0,.16-.08.16-.25s-.05-.28-.16-.32c-.08.04-.12.15-.12.32s.04.25.12.25ZM100.57,83.7c.03-.25-.03-.42-.16-.51-.13-.08-.23.02-.28.32,0,.09,0,.15-.02.19s0,.11.02.19c.05.3.16.36.32.19.03-.04.05-.09.06-.16.01-.06.03-.14.06-.22ZM100.57,69.13c.05.42.19.53.4.32l.08-.13s.03-.11.08-.19c.05-.25.03-.45-.08-.57-.05-.04-.11-.06-.16-.06v-.06c-.13-.08-.23-.02-.28.19-.05.21-.07.38-.04.51ZM100.81,81.98c-.03.13-.03.25,0,.38.03.13.09.21.2.25.08,0,.14-.06.18-.19.04-.13.05-.25.02-.38-.03-.21-.09-.33-.18-.35-.09-.02-.17.07-.22.29ZM101.17,89.17c-.11,0-.16.09-.16.25s.05.25.16.25c.08,0,.12-.08.12-.25s-.04-.25-.12-.25ZM101.53,101.83c.19-.51.16-.87-.08-1.08-.05-.08-.11-.13-.16-.13s-.09.02-.12.06c-.08.09-.11.21-.1.38.01.17.07.28.18.32-.03,0-.04.06-.04.19-.03.21,0,.36.1.45.09.09.17.02.22-.19ZM101.33,95.4c.11,0,.16-.08.16-.25s-.05-.25-.16-.25c-.08,0-.12.09-.12.25s.04.25.12.25ZM101.81,71.1c.13-.17.24-.34.32-.51.08-.17.12-.4.12-.7l-.04-.25v-.06c-.03-.08-.03-.16-.02-.22.01-.06,0-.14-.02-.22-.05-.08-.13-.13-.24-.13-.13.17-.19.36-.16.57v.06l.04.25v.13s-.05.02-.08.06-.04.09-.04.13l-.08.13-.08.13c-.08.13-.08.28,0,.45,0,.09.03.16.1.22.07.06.13.05.18-.03ZM102.82,84.14c.13,0,.2-.13.2-.38s-.07-.4-.2-.45c-.13.04-.2.19-.2.45s.07.38.2.38ZM102.82,100.88c.08,0,.12-.08.12-.25s-.04-.28-.12-.32c-.11.04-.16.15-.16.32s.05.25.16.25ZM106.52,66.91c-.11,0-.16.07-.16.22s.05.24.16.29c.08-.04.12-.14.12-.29s-.04-.22-.12-.22ZM106.76,100.62c-.11,0-.16.09-.16.25s.05.25.16.25c.08,0,.12-.08.12-.25s-.04-.25-.12-.25ZM109.38,100.75c-.13,0-.2.13-.2.38s.07.38.2.38.2-.13.2-.38-.07-.38-.2-.38Z"/>
    <path class="cls-2" d="M132.49,61.47c.62.79,1.21,1.76,1.79,2.92.58,1.16,1.09,2.42,1.55,3.8.46,1.38.85,2.78,1.19,4.21.34,1.43.56,2.78.66,4.06.21,2.26.29,4.54.24,6.83-.05,2.29-.19,4.47-.4,6.53-.21,2.07-.49,3.99-.83,5.76-.34,1.77-.68,3.25-1.03,4.43-.59,2.02-1.3,3.72-2.13,5.09-.83,1.38-1.67,2.47-2.51,3.28-.85.81-1.64,1.39-2.39,1.73-.75.34-1.33.49-1.73.44-.56-.05-1.26-.03-2.09.07-.83.1-1.6.15-2.29.15-.32,0-.61-.01-.86-.04-.26-.03-.45-.09-.58-.18-.38,0-.77-.01-1.19-.04-.42-.03-.82-.07-1.21-.15-.39-.07-.74-.12-1.05-.15-.31-.02-.54-.04-.7-.04-.27,0-.46-.37-.58-1.11-.12-.74-.2-1.6-.24-2.58-.04-.98-.05-1.93-.02-2.84.03-.91.05-1.54.08-1.88.03-.34.02-1.23-.02-2.66-.04-1.43-.08-3.03-.12-4.8-.04-1.77-.08-3.49-.12-5.17-.04-1.67-.05-2.93-.02-3.77.03-.84.06-1.83.1-2.99.04-1.16.07-2.36.08-3.62.01-1.26.02-2.51.02-3.76s-.03-2.35-.08-3.28c-.05-.79-.09-1.8-.1-3.03-.01-1.23,0-2.45.02-3.65.03-1.2.07-2.3.14-3.28.07-.98.14-1.62.22-1.92.19-.64.53-1.1,1.03-1.37.5-.27,1.05-.45,1.67-.55.19,0,.4-.01.62-.04.23-.02.46-.04.7-.04.67-.05,1.37-.07,2.09-.07.64,0,1.36.04,2.15.11s1.6.21,2.43.41c1.18.3,2.25.7,3.2,1.22.95.52,1.72,1.17,2.31,1.96ZM119.9,74.83c-.05.1-.1.21-.14.33-.04.12-.02.31.06.55.05.1.12.12.2.07l.12.15h.12c.05-.05.09-.11.1-.18.01-.07.03-.16.06-.26,0-.1.01-.17.04-.22.05-.15.05-.34,0-.59-.05-.25-.15-.3-.28-.15h-.08c-.05.05-.12.15-.2.3ZM119.86,100.52c.11-.05.16-.17.16-.37s-.05-.3-.16-.3c-.08,0-.12.1-.12.3s.04.32.12.37ZM119.9,93.14c.11.15.21.15.32,0,.24-.44.36-.89.36-1.33.03-.1.03-.25,0-.44,0-.2-.07-.29-.2-.29-.13.1-.2.27-.2.52v.07c-.05.25-.09.39-.1.44-.01.05-.07.17-.18.37-.11.2-.11.42,0,.66ZM120.1,68.33c-.08.2-.09.39-.04.59.05.15.09.25.12.3.08.15.17.12.28-.07.05-.25.07-.42.04-.52,0-.25-.01-.39-.04-.44-.11-.2-.2-.22-.28-.07-.05,0-.08.07-.08.22ZM120.3,83.02c.19-.1.25-.32.2-.66-.03-.25-.09-.38-.18-.41-.09-.02-.17.09-.22.33-.11.39-.04.64.2.74ZM121.15,104.06c.08-.15.09-.33.04-.55-.05-.22-.15-.26-.28-.11h-.04c-.11,0-.18.07-.22.22-.04.15-.05.27-.02.37v.07l-.08.07s.04-.15.04-.3v-.29c-.05-.15-.11-.22-.18-.22s-.11.1-.14.3c-.03.15-.05.28-.08.41-.03.12-.04.26-.04.41,0,.2.04.38.12.55.08.17.19.21.32.11.03,0,.07-.05.12-.15.05,0,.08-.05.08-.15l.28-.52c.05-.1.08-.17.08-.22ZM121.35,100.66c.08,0,.12-.1.12-.3s-.04-.32-.12-.37c-.11.05-.16.17-.16.37s.05.3.16.3ZM121.79,69.81h-.2c-.05,0-.09.06-.12.18-.03.12-.01.21.04.26.03,0,.04.03.04.07h.08l.04.07h.12c.16-.2.16-.39,0-.59ZM122.68,67.37c.13-.05.2-.21.2-.48s-.07-.41-.2-.41-.2.14-.2.41.07.43.2.48ZM124,102.95c.11-.05.16-.16.16-.33s-.05-.26-.16-.26c-.08,0-.12.09-.12.26s.04.28.12.33ZM129.84,86.57c.11-1.82.09-3.48-.04-4.98-.13-1.5-.4-2.6-.8-3.28-.38-.59-.74-1.17-1.09-1.74-.35-.57-.75-.87-1.21-.92-.38-.05-.75-.12-1.13-.22-.38-.1-.74-.05-1.09.15.03.79.04,1.53.04,2.21s0,1.37-.02,2.03c-.01.66-.03,1.35-.04,2.07-.01.71,0,1.49.02,2.33.03,1.28.09,2.74.18,4.39.09,1.65.11,3.11.06,4.39,0,.1,0,.2-.02.3-.01.1-.02.2-.02.3.59.1,1.2,0,1.83-.3.63-.3,1.19-.76,1.67-1.4.43-.54.8-1.33,1.11-2.36s.49-2.02.54-2.95ZM125.98,66.56c-.03.15,0,.3.06.44.07.15.14.17.22.07h.08l.04-.07s.09-.05.2-.15c.08-.15.12-.3.12-.44,0-.2-.04-.34-.12-.44-.08-.1-.16-.1-.24,0l-.04.07-.2.22c-.05.1-.09.2-.12.3ZM128.07,103.1c.08,0,.12-.09.12-.26s-.04-.28-.12-.33c-.08.05-.12.16-.12.33s.04.26.12.26ZM130.76,68.41c.11-.15.14-.36.1-.63-.04-.27-.13-.38-.26-.33-.13.1-.2.14-.2.11s-.04-.01-.12.04h-.08c-.13-.15-.27-.15-.4,0-.11.1-.15.28-.12.55.03.27.11.43.24.48h.26c.09,0,.19-.02.3-.07l.28-.15ZM132.61,71.36c-.11,0-.16.1-.16.3s.05.3.16.3c.08,0,.12-.1.12-.3s-.04-.3-.12-.3ZM133.42,96.38c.08,0,.14-.07.18-.22.04-.15.06-.27.06-.37-.05-.34-.15-.49-.28-.44l-.64.22h-.04c-.11.05-.16.18-.16.41s.04.41.12.55h.36c.16-.1.29-.15.4-.15ZM133.94,88.78c.03-.2-.01-.34-.12-.44-.11-.1-.19-.03-.24.22l-.04.07-.04.3-.04.15c-.08.25-.09.44-.04.59.03.1.07.15.12.15s.09-.02.12-.07c.05-.05.08-.11.08-.18s.03-.16.08-.26v-.07c.08-.15.12-.3.12-.44ZM133.7,74.68c-.16.15-.21.39-.16.74.05.25.13.33.24.26.11-.07.17-.23.2-.48,0-.1-.03-.22-.08-.37-.05-.15-.12-.2-.2-.15ZM133.98,82.43c.08,0,.12-.1.12-.3s-.04-.32-.12-.37c-.11.05-.16.17-.16.37s.05.3.16.3Z"/>
  </g>
  <polygon class="cls-1" points="122.51 47.67 117.85 48.52 113.31 48.79 109.22 51 104.57 50.75 100.44 52.78 96.11 53.92 91.53 54.01 87.2 55.19 82.74 55.8 82.93 56.21 78.57 55.18 74.1 54.63 69.66 53.96 65.34 52.75 60.95 51.86 56.85 49.68 52.14 50.18 48.09 47.8 43.48 47.45 44.02 43.83 48.96 45.42 53.7 46.3 58.17 48.33 62.99 48.32 64.86 45.99 65.9 43.19 62.76 40.21 59.3 37.43 55.77 34.84 56.97 33.43 61.01 35.38 64.12 38.87 68.21 40.68 72.65 38.44 70.78 33.28 68.79 27.94 71.66 26.46 72.39 32.58 75.4 37.49 78.56 37.3 81.59 36.45 82.02 32.23 82.36 27.91 82.38 23.58 82.01 19.02 84.6 19.39 84.78 23.64 84.89 27.96 84.59 32.27 84 36.68 90.22 37.63 91.51 32.9 93.99 28.8 96.53 24.91 97.79 25.65 95.89 29.61 94.91 34.33 92.63 38.26 97.68 41.85 102.17 38.47 106.3 35.1 107.89 36.92 103.21 39.4 98.6 42.11 102.1 45.09 102.74 48.02 107.58 48.43 112.11 46.61 116.68 44.98 121.64 44.17 122.51 47.67"/>
</svg>